#!OML:ASF F:\VICON\USERDATA\INSTALL\rory3\rory3.ASF
:FULLY-SPECIFIED
:DEGREES
1050
root 0.381116 16.2445 -0.0716747 -152.23 -7.12984 181.064
lowerback -5.8856 2.14537 5.92668
upperback -12.4821 1.11414 -0.820309
thorax -9.84492 -0.815692 -4.07914
lowerneck -7.38899 3.59493 0.147836
upperneck -0.0979681 4.73805 -3.55132
head 1.3091 2.23998 -0.974199
rclavicle -5.06047e-015 -3.37934e-015
rhumerus -229.492 -150.998 161.426
rradius 18.3863
rwrist 27.9411
rhand -13.0321 19.8874
rfingers 7.12502
rthumb 13.0622 -9.68362
lclavicle -5.06047e-015 -3.37934e-015
lhumerus -35.5958 6.50637 44.7621
lradius 28.776
lwrist -34.3542
lhand -8.73774 14.0356
lfingers 7.12502
lthumb 17.1989 43.2945
rfemur -44.3466 12.9211 28.2027
rtibia 42.1407
rfoot -41.1863 -30.6601
rtoes 29.908
lfemur -94.6093 33.5655 -47.8836
ltibia 98.1616
lfoot -38.5807 49.1401
ltoes 52.0027
1051
root 0.375873 16.2538 -0.0660326 -152.402 -7.149 180.837
lowerback -5.94381 2.16816 5.66852
upperback -12.154 1.21403 -0.893417
thorax -9.42217 -0.686571 -4.02154
lowerneck -7.04568 3.863 0.551334
upperneck -0.0845403 5.07626 -4.09647
head 1.29136 2.40276 -1.20788
rclavicle -3.34478e-015 -8.64713e-015
rhumerus -228.638 -151.15 159.076
rradius 18.6115
rwrist 25.5797
rhand -15.0515 21.3338
rfingers 7.12502
rthumb 11.115 -8.35187
lclavicle -3.34478e-015 -8.64713e-015
lhumerus -34.439 6.94418 46.6779
lradius 28.8848
lwrist -33.2924
lhand -9.61193 13.2684
lfingers 7.12502
lthumb 16.3573 42.5986
rfemur -44.1826 13.2897 27.7945
rtibia 42.1281
rfoot -41.5743 -31.057
rtoes 29.6595
lfemur -94.7361 33.6661 -48.604
ltibia 97.9854
lfoot -34.5859 51.6331
ltoes 51.5796
1052
root 0.373677 16.255 -0.0579198 -152.587 -7.15875 180.661
lowerback -5.90945 2.17926 5.33804
upperback -11.8608 1.30467 -0.873393
thorax -9.09975 -0.558981 -3.82229
lowerneck -7.29676 4.13494 0.520687
upperneck 0.59161 5.48377 -4.19466
head 1.56574 2.59647 -1.20975
rclavicle -8.39322e-015 -1.99779e-014
rhumerus -227.458 -152.322 155.886
rradius 19.3644
rwrist 22.0819
rhand -16.6547 22.1631
rfingers 7.12502
rthumb 9.56848 -7.59964
lclavicle -8.39322e-015 -1.99779e-014
lhumerus -33.6166 6.98807 48.7595
lradius 29.3656
lwrist -31.8239
lhand -10.0391 12.7435
lfingers 7.12502
lthumb 15.946 42.1071
rfemur -44.0018 13.8032 27.414
rtibia 42.1184
rfoot -42.2199 -31.0819
rtoes 30.0709
lfemur -94.4853 33.7963 -48.7961
ltibia 97.8783
lfoot -33.7537 51.9652
ltoes 51.5744
1053
root 0.368876 16.2541 -0.0475279 -152.96 -7.358 180.826
lowerback -5.6277 2.17207 5.45092
upperback -11.5897 1.39397 -0.760016
thorax -8.94776 -0.472097 -3.77456
lowerneck -7.48575 4.40402 0.731076
upperneck 1.4027 5.88089 -4.47724
head 1.89279 2.77962 -1.31042
rclavicle 2.69477e-014 7.55382e-015
rhumerus -226.635 -152.845 153.512
rradius 20.0398
rwrist 19.6425
rhand -17.7599 23.2797
rfingers 7.12502
rthumb 8.50207 -6.52918
lclavicle 2.69477e-014 7.55382e-015
lhumerus -33.1167 6.30255 51.0311
lradius 30.4356
lwrist -29.5086
lhand -10.1184 12.4416
lfingers 7.12502
lthumb 15.8696 41.8113
rfemur -43.593 13.9976 27.5999
rtibia 42.0263
rfoot -42.3171 -31.0936
rtoes 30.4766
lfemur -94.2241 33.9823 -48.489
ltibia 97.8623
lfoot -32.7171 52.5825
ltoes 51.5246
1054
root 0.362608 16.2595 -0.0416886 -153.454 -7.58717 180.79
lowerback -5.33356 2.11852 5.46407
upperback -11.2315 1.43282 -0.740231
thorax -8.71114 -0.393207 -3.77199
lowerneck -7.66379 4.6744 0.959056
upperneck 2.16512 6.27434 -4.70275
head 2.2064 2.96142 -1.39565
rclavicle 2.56556e-014 9.14409e-015
rhumerus -225.899 -152.876 151.474
rradius 20.4703
rwrist 17.8957
rhand -18.5637 24.8563
rfingers 7.12502
rthumb 7.72627 -4.98258
lclavicle 2.56556e-014 9.14409e-015
lhumerus -32.5436 5.47475 53.3562
lradius 31.6102
lwrist -26.9451
lhand -9.98388 12.4519
lfingers 7.12502
lthumb 15.9992 41.8112
rfemur -43.0306 14.2489 27.5681
rtibia 41.9538
rfoot -42.8067 -31.2878
rtoes 31.0454
lfemur -93.6764 34.16 -48.2686
ltibia 97.7966
lfoot -31.4505 53.2789
ltoes 51.3906
